<?xml version="1.0" encoding="utf-8"?>
<!-- Generator: Adobe Illustrator 24.2.1, SVG Export Plug-In . SVG Version: 6.00 Build 0)  -->
<svg version="1.1" id="Calque_1" xmlns="http://www.w3.org/2000/svg" xmlns:xlink="http://www.w3.org/1999/xlink" x="0px" y="0px"
	 viewBox="0 0 128 128" style="enable-background:new 0 0 128 128;" xml:space="preserve">
<style type="text/css">
	.st0{fill:#1880B6;}
	.st1{fill:#FFFFFF;}
</style>
<rect class="st0" width="128" height="128"/>
<g>
	<path class="st1" d="M76.2,22.1l-1.7,1.7c-4.1,4.1-4.7,10.3-1.8,15.1L55,50.8l-0.3-0.3c-6.7-6.7-17.6-6.7-24.3,0l-1.7,1.7L50.5,74
		l-28.4,28.4l3.5,3.5L54,77.5l21.8,21.8l1.7-1.7c6.7-6.7,6.7-17.6,0-24.3L77.2,73l11.9-17.6c4.7,2.9,11,2.3,15.1-1.8l1.7-1.7
		L76.2,22.1z M75.6,92.2L35.8,52.4c4.8-3.2,11.3-2.6,15.5,1.6l22.8,22.8C78.3,80.9,78.8,87.4,75.6,92.2z M73.7,69.4L58.6,54.3
		l17.3-11.7l9.5,9.5L73.7,69.4z M90.3,50.1L77.9,37.7c-2.3-2.3-2.7-5.6-1.4-8.4l22.2,22.2C95.9,52.8,92.6,52.4,90.3,50.1L90.3,50.1z
		"/>
</g>
</svg>
