<?xml version="1.0" encoding="utf-8"?>
<!-- Generator: Adobe Illustrator 24.2.1, SVG Export Plug-In . SVG Version: 6.00 Build 0)  -->
<svg version="1.1" id="Calque_1" xmlns="http://www.w3.org/2000/svg" xmlns:xlink="http://www.w3.org/1999/xlink" x="0px" y="0px"
	 viewBox="0 0 128 128" style="enable-background:new 0 0 128 128;" xml:space="preserve">
<style type="text/css">
	.st0{fill:#1880B6;}
	.st1{fill:#FFFFFF;}
</style>
<rect class="st0" width="128" height="128"/>
<g>
	<path class="st1" d="M45,67.3c-0.8,0-1.6-0.4-2.1-1.1l-5-7.4c-0.6-0.8-0.6-1.9,0-2.7l5-7.4c0.8-1.1,2.3-1.4,3.4-0.7
		c1.1,0.8,1.4,2.3,0.7,3.4l-4,6.1l4,6.1c0.8,1.1,0.5,2.7-0.7,3.4C46,67.2,45.5,67.3,45,67.3z"/>
	<path class="st1" d="M83,67.3c-0.5,0-0.9-0.1-1.4-0.4c-1.1-0.8-1.4-2.3-0.7-3.4l4-6.1l-4-6.1c-0.8-1.1-0.5-2.7,0.7-3.4
		c1.1-0.8,2.7-0.5,3.4,0.7l5,7.4c0.6,0.8,0.6,1.9,0,2.7l-5,7.4C84.6,66.9,83.8,67.3,83,67.3z"/>
	<path class="st1" d="M47.5,91.2c-2.3,0-4.1-1.9-4.1-4.1s1.9-4.1,4.1-4.1s4.1,1.9,4.1,4.1S49.8,91.2,47.5,91.2z M47.5,86.3
		c-0.5,0-0.8,0.4-0.8,0.8c0,0.9,1.7,0.9,1.7,0C48.3,86.7,47.9,86.3,47.5,86.3z"/>
	<path class="st1" d="M64,91.2c-2.3,0-4.1-1.9-4.1-4.1S61.7,83,64,83c2.3,0,4.1,1.9,4.1,4.1S66.3,91.2,64,91.2z M64,86.3
		c-0.5,0-0.8,0.4-0.8,0.8c0,0.9,1.7,0.9,1.7,0C64.8,86.7,64.5,86.3,64,86.3z"/>
	<path class="st1" d="M80.5,91.2c-2.3,0-4.1-1.9-4.1-4.1s1.9-4.1,4.1-4.1c2.3,0,4.1,1.9,4.1,4.1S82.8,91.2,80.5,91.2z M80.5,86.3
		c-0.5,0-0.8,0.4-0.8,0.8c0,0.9,1.7,0.9,1.7,0C81.3,86.7,81,86.3,80.5,86.3z"/>
	<path class="st1" d="M94.5,103.6H33.5c-5,0-9.1-4.1-9.1-9.1V33.5c0-5,4.1-9.1,9.1-9.1h61.1c5,0,9.1,4.1,9.1,9.1v61.1
		C103.6,99.6,99.6,103.6,94.5,103.6z M33.5,29.3c-2.3,0-4.1,1.9-4.1,4.1v61.1c0,2.3,1.9,4.1,4.1,4.1h61.1c2.3,0,4.1-1.9,4.1-4.1
		V33.5c0-2.3-1.9-4.1-4.1-4.1H33.5z"/>
</g>
</svg>
