<?xml version="1.0" encoding="utf-8"?>
<!-- Generator: Adobe Illustrator 24.2.1, SVG Export Plug-In . SVG Version: 6.00 Build 0)  -->
<svg version="1.1" id="Calque_1" xmlns="http://www.w3.org/2000/svg" xmlns:xlink="http://www.w3.org/1999/xlink" x="0px" y="0px"
	 viewBox="0 0 128 128" style="enable-background:new 0 0 128 128;" xml:space="preserve">
<style type="text/css">
	.st0{fill:#1880B6;}
	.st1{fill:#FFFFFF;}
</style>
<rect class="st0" width="128" height="128"/>
<g>
	<g>
		<g>
			<path class="st1" d="M91.1,70.5c-0.5-1.3-2-1.9-3.3-1.4c-1.3,0.5-1.9,2-1.4,3.3l3,7.4l-8.9-3.9c-0.6-0.3-1.4-0.3-2,0
				c-3.1,1.3-6.3,2-9.7,2c-13.7,0-22.8-10.7-22.8-20.7c0-11.4,10.2-20.7,22.8-20.7s22.8,9.3,22.8,20.7c0,0.9-0.1,2-0.2,2.9
				c-0.2,1.4,0.8,2.7,2.1,2.9c1.4,0.2,2.7-0.8,2.9-2.1c0.2-1.2,0.3-2.5,0.3-3.7c0-6.9-2.9-13.4-8.3-18.3c-5.3-4.8-12.3-7.5-19.7-7.5
				S54.3,34,49,38.8c-4.8,4.4-7.6,10-8.2,16.1c-6,4-9.5,10.3-9.5,17.2c0,4.3,1.3,8.3,3.9,11.8l-3.7,9.2c-0.4,1-0.2,2.1,0.6,2.8
				c0.5,0.5,1.1,0.7,1.8,0.7c0.3,0,0.7-0.1,1-0.2l10.8-4.7c2.7,1,5.6,1.5,8.5,1.5c0.1,0,0.1,0,0.2,0c4.3,0,8.4-1.2,12-3.3
				c3.2-1.9,5.9-4.5,7.7-7.5c1.8-0.3,3.6-0.8,5.3-1.5l13.7,6c0.3,0.1,0.7,0.2,1,0.2c0.7,0,1.3-0.2,1.8-0.7c0.7-0.7,1-1.8,0.6-2.8
				L91.1,70.5z M54.2,88.1c0,0-0.1,0-0.1,0c-2.6,0-5.1-0.5-7.5-1.5c-0.6-0.3-1.4-0.3-2,0l-6,2.6l1.9-4.8c0.4-0.9,0.2-1.9-0.4-2.6
				c-2.4-2.8-3.7-6.2-3.7-9.8c0-4.1,1.7-7.9,4.7-10.9c0.9,5.1,3.6,10,7.6,13.8c5,4.8,11.5,7.5,18.6,7.9C64,86.2,59.2,88.1,54.2,88.1
				z"/>
			<circle class="st1" cx="68.6" cy="57.2" r="2.6"/>
			<circle class="st1" cx="78.8" cy="57.2" r="2.6"/>
			<circle class="st1" cx="58.4" cy="57.2" r="2.6"/>
		</g>
	</g>
</g>
</svg>
