<?xml version="1.0" encoding="utf-8"?>
<!-- Generator: Adobe Illustrator 24.2.1, SVG Export Plug-In . SVG Version: 6.00 Build 0)  -->
<svg version="1.1" id="Calque_1" xmlns="http://www.w3.org/2000/svg" xmlns:xlink="http://www.w3.org/1999/xlink" x="0px" y="0px"
	 viewBox="0 0 128 128" style="enable-background:new 0 0 128 128;" xml:space="preserve">
<style type="text/css">
	.st0{fill:#1880B6;}
	.st1{fill:#FFFFFF;}
</style>
<rect class="st0" width="128" height="128"/>
<g>
	<path class="st1" d="M74.9,31.3c0-6-4.9-10.9-10.9-10.9s-10.9,4.9-10.9,10.9S58,42.2,64,42.2C70,42.2,74.9,37.3,74.9,31.3z
		 M64,38.5c-4,0-7.3-3.3-7.3-7.3S60,24,64,24s7.3,3.3,7.3,7.3S68,38.5,64,38.5z"/>
	<path class="st1" d="M80.4,65.8v-7.3c0-9-7.3-16.4-16.4-16.4s-16.4,7.3-16.4,16.4v7.3c0,1,0.8,1.8,1.8,1.8h29.1
		C79.6,67.6,80.4,66.8,80.4,65.8z M76.7,64H51.3v-5.5c0-7,5.7-12.7,12.7-12.7s12.7,5.7,12.7,12.7V64z"/>
	<path class="st1" d="M30.5,91.7l8.8,4.4v9.8c0,1,0.8,1.8,1.8,1.8h19.3c1,0,1.8-0.8,1.8-1.8V82.7c0-5.8-4.3-10.8-9.7-11.4
		c-0.1,0-7-0.5-10.4-3.9l-5-5c-1.4-1.4-3.2-2.1-5.1-2.1V45.8c0-4-3.3-7.3-7.3-7.3s-7.3,3.3-7.3,7.3v24.7
		C17.4,79.5,22.5,87.7,30.5,91.7L30.5,91.7z M21.1,45.8c0-2,1.6-3.6,3.6-3.6s3.6,1.6,3.6,3.6v15.5c-2.2,1.3-3.6,3.7-3.6,6.3
		c0,1.9,0.8,3.8,2.1,5.1l9.3,9.3c0.7,0.7,1.9,0.7,2.6,0c0.7-0.7,0.7-1.9,0-2.6l-9.3-9.3c-0.7-0.7-1.1-1.6-1.1-2.6
		c0-1.5,1-2.9,2.4-3.4c0,0,0,0,0,0h0c1.3-0.4,2.7-0.2,3.8,0.9l5,5c3.4,3.4,8.3,4.3,12.5,4.9c0,0,0,0,0,0c3.6,0.4,6.5,3.8,6.5,7.7
		V104H42.9v-9.1c0-0.7-0.4-1.3-1-1.6l-9.8-4.9C25.3,85,21.1,78.1,21.1,70.5V45.8z"/>
	<circle class="st1" cx="100.9" cy="87.3" r="1.8"/>
	<path class="st1" d="M103.3,38.5c-4,0-7.3,3.3-7.3,7.3v14.6c-1.9,0-3.8,0.8-5.1,2.1l-5,5c-2.9,2.9-7.6,3.4-10.4,3.9
		c-5.4,0.6-9.7,5.6-9.7,11.4v23.1c0,1,0.8,1.8,1.8,1.8h19.3c1,0,1.8-0.8,1.8-1.8V96l6-3c0.9-0.4,1.3-1.5,0.8-2.4
		c-0.4-0.9-1.5-1.3-2.4-0.8l-7,3.5c-0.6,0.3-1,0.9-1,1.6v9.1H69.5V82.7c0-3.9,2.8-7.3,6.5-7.7c0,0,0,0,0,0c4.2-0.6,9.1-1.5,12.5-4.9
		l5-5c1-1,2.5-1.3,3.8-0.9h0c0,0,0,0,0,0c1.5,0.5,2.4,1.9,2.4,3.4c0,1-0.4,1.9-1.1,2.6l-9.3,9.3c-0.7,0.7-0.7,1.9,0,2.6
		c0.7,0.7,1.9,0.7,2.6,0l9.3-9.3c1.4-1.4,2.1-3.2,2.1-5.1c0-2.6-1.4-5-3.6-6.3V45.8c0-2,1.6-3.6,3.6-3.6c2,0,3.6,1.6,3.6,3.6v24.7
		c0,3.3-0.8,6.6-2.4,9.6c-0.5,0.9-0.2,2,0.7,2.5c0.9,0.5,2,0.2,2.5-0.7c1.9-3.5,2.9-7.4,2.9-11.3V45.8
		C110.6,41.8,107.3,38.5,103.3,38.5z"/>
</g>
</svg>
