<?xml version="1.0" encoding="utf-8"?>
<!-- Generator: Adobe Illustrator 24.2.1, SVG Export Plug-In . SVG Version: 6.00 Build 0)  -->
<svg version="1.1" id="Calque_1" xmlns="http://www.w3.org/2000/svg" xmlns:xlink="http://www.w3.org/1999/xlink" x="0px" y="0px"
	 viewBox="0 0 80 80" style="enable-background:new 0 0 80 80;" xml:space="preserve">
<g>
	<path id="a" d="M40,0C17.9,0,0,17.9,0,40s17.9,40,40,40s40-17.9,40-40S62.1,0,40,0z M40,4c19.9,0,36,16.1,36,36S59.9,76,40,76
		S4,59.9,4,40S20.1,4,40,4z M32.9,23.8c-1,0.1-1.8,1-1.8,2.2v28c0,0.8,0.3,1.5,1,1.9c0.6,0.4,1.4,0.4,2,0l22-14c0.6-0.4,1-1.1,1-1.8
		s-0.4-1.5-1-1.8l-22-14C33.6,23.9,33.3,23.8,32.9,23.8z M34.9,29.7L51.2,40L34.9,50.3V29.7z"/>
</g>
</svg>
