<?xml version="1.0" encoding="utf-8"?>
<!-- Generator: Adobe Illustrator 24.2.1, SVG Export Plug-In . SVG Version: 6.00 Build 0)  -->
<svg version="1.1" id="Calque_1" xmlns="http://www.w3.org/2000/svg" xmlns:xlink="http://www.w3.org/1999/xlink" x="0px" y="0px"
	 viewBox="0 0 128 128" style="enable-background:new 0 0 128 128;" xml:space="preserve">
<style type="text/css">
	.st0{fill:#1880B6;}
	.st1{fill:#FFFFFF;}
</style>
<rect class="st0" width="128" height="128"/>
<g>
	<path class="st1" d="M111.1,95.2L94.9,79l7.9-7.9c0.7-0.7,1-1.7,0.7-2.6c-0.2-0.9-0.9-1.7-1.8-2L54.1,50.6c-1-0.3-2.1-0.1-2.9,0.7
		c-0.8,0.8-1,1.9-0.7,2.9l15.9,47.6c0.3,0.9,1.1,1.6,2,1.8c0.9,0.2,1.9-0.1,2.6-0.7l7.9-7.9l16.2,16.2c0.5,0.5,1.3,0.8,2,0.8
		c0.7,0,1.4-0.3,2-0.8l11.9-11.9C112.1,98.1,112.1,96.3,111.1,95.2z M97.2,105.1L81,88.9c-1.1-1.1-2.9-1.1-4,0l-6.7,6.7l-12.7-38
		l38,12.7L88.9,77c-1.1,1.1-1.1,2.9,0,4l16.2,16.2L97.2,105.1z"/>
	<path class="st1" d="M52.6,38.6c1.5,0,2.8-1.3,2.8-2.8V18.9c0-1.5-1.3-2.8-2.8-2.8s-2.8,1.3-2.8,2.8v16.8
		C49.8,37.3,51,38.6,52.6,38.6z"/>
	<path class="st1" d="M30.8,26.8c-1.1-1.1-2.9-1.1-4,0c-1.1,1.1-1.1,2.9,0,4l11.9,11.9c1.1,1.1,2.9,1.1,4,0c1.1-1.1,1.1-2.9,0-4
		L30.8,26.8z"/>
	<path class="st1" d="M38.7,62.5L26.8,74.4c-1.1,1.1-1.1,2.9,0,4c1.1,1.1,2.9,1.1,4,0l11.9-11.9c1.1-1.1,1.1-2.9,0-4
		C41.6,61.4,39.8,61.4,38.7,62.5z"/>
	<path class="st1" d="M66.5,42.7l11.9-11.9c1.1-1.1,1.1-2.9,0-4c-1.1-1.1-2.9-1.1-4,0L62.5,38.7c-1.1,1.1-1.1,2.9,0,4
		C63.6,43.8,65.4,43.8,66.5,42.7z"/>
	<path class="st1" d="M38.6,52.6c0-1.5-1.3-2.8-2.8-2.8H18.9c-1.5,0-2.8,1.3-2.8,2.8c0,1.5,1.3,2.8,2.8,2.8h16.8
		C37.3,55.4,38.6,54.1,38.6,52.6z"/>
</g>
</svg>
