<?xml version="1.0" encoding="utf-8"?>
<!-- Generator: Adobe Illustrator 24.2.1, SVG Export Plug-In . SVG Version: 6.00 Build 0)  -->
<svg version="1.1" id="Calque_1" xmlns="http://www.w3.org/2000/svg" xmlns:xlink="http://www.w3.org/1999/xlink" x="0px" y="0px"
	 viewBox="0 0 128 128" style="enable-background:new 0 0 128 128;" xml:space="preserve">
<style type="text/css">
	.st0{fill:#1880B6;}
	.st1{fill:#FFFFFF;}
</style>
<rect class="st0" width="128" height="128"/>
<g>
	<g>
		<g>
			<path class="st1" d="M26.1,36.2h75.9c1.4,0,2.5-1.1,2.5-2.5c0-1.4-1.1-2.5-2.5-2.5H26.1c-1.4,0-2.5,1.1-2.5,2.5
				C23.5,35,24.7,36.2,26.1,36.2z"/>
			<path class="st1" d="M37.4,51.4c-1.4,0-2.5,1.1-2.5,2.5c0,1.4,1.1,2.5,2.5,2.5h53.1c1.4,0,2.5-1.1,2.5-2.5s-1.1-2.5-2.5-2.5
				C90.6,51.4,37.4,51.4,37.4,51.4z"/>
			<path class="st1" d="M101.9,71.6H26.1c-1.4,0-2.5,1.1-2.5,2.5s1.1,2.5,2.5,2.5h75.9c1.4,0,2.5-1.1,2.5-2.5S103.3,71.6,101.9,71.6
				z"/>
			<path class="st1" d="M81.1,91.8H46.9c-1.4,0-2.5,1.1-2.5,2.5s1.1,2.5,2.5,2.5h34.2c1.4,0,2.5-1.1,2.5-2.5S82.5,91.8,81.1,91.8z"
				/>
		</g>
	</g>
</g>
</svg>
