<?xml version="1.0" encoding="utf-8"?>
<!-- Generator: Adobe Illustrator 24.2.1, SVG Export Plug-In . SVG Version: 6.00 Build 0)  -->
<svg version="1.1" id="Calque_1" xmlns="http://www.w3.org/2000/svg" xmlns:xlink="http://www.w3.org/1999/xlink" x="0px" y="0px"
	 viewBox="0 0 128 128" style="enable-background:new 0 0 128 128;" xml:space="preserve">
<style type="text/css">
	.st0{fill:#1880B6;}
	.st1{fill:#FFFFFF;}
</style>
<rect class="st0" width="128" height="128"/>
<g>
	<path class="st1" d="M76.2,60.4l-17.6-9.6c-1-0.6-2.2-0.5-3.2,0.1c-1,0.6-1.6,1.6-1.6,2.8v19c0,1.1,0.6,2.2,1.6,2.8
		c0.5,0.3,1.1,0.5,1.7,0.5c0.5,0,1-0.1,1.5-0.4l17.6-9.4c1-0.6,1.7-1.6,1.7-2.8C77.9,62.1,77.3,61,76.2,60.4z M58.6,70.3V56.1
		l13.1,7.2L58.6,70.3z"/>
	<path class="st1" d="M103.1,48.1L103.1,48.1c-0.1-0.7-0.7-6.4-3.5-9.3c-3.2-3.4-6.8-3.8-8.6-4c-0.1,0-0.3,0-0.4,0l-0.1,0
		C80,34,64.2,33.9,64,33.9l0,0l0,0c-0.2,0-16,0.1-26.6,0.9l-0.1,0c-0.1,0-0.2,0-0.4,0c-1.7,0.2-5.3,0.6-8.5,4.1
		c-2.6,2.9-3.4,8.4-3.5,9.1l0,0.1c0,0.3-0.6,6.6-0.6,13V67c0,6.4,0.6,12.7,0.6,13l0,0c0.1,0.6,0.7,6.2,3.5,9.1c3,3.3,6.8,3.7,8.9,4
		c0.3,0,0.6,0.1,0.8,0.1l0.2,0c6.1,0.6,25.1,0.9,25.9,0.9l0,0l0,0c0.2,0,16-0.1,26.5-0.9l0.1,0c0.1,0,0.3,0,0.4-0.1
		c1.7-0.2,5.3-0.6,8.4-4c2.6-2.9,3.4-8.4,3.5-9.1l0-0.1c0-0.3,0.6-6.6,0.6-13v-5.9C103.7,54.7,103.2,48.4,103.1,48.1z M99.1,67
		c0,5.9-0.5,12-0.6,12.5c-0.2,1.5-1,5.1-2.3,6.5c-2,2.2-4,2.4-5.5,2.5c-0.2,0-0.3,0-0.5,0.1c-10.2,0.7-25.4,0.8-26.1,0.9
		c-0.8,0-19.5-0.3-25.4-0.8c-0.3,0-0.6-0.1-1-0.1c-1.7-0.2-4.1-0.5-6-2.5l0,0c-1.3-1.3-2-4.6-2.2-6.4c0-0.4-0.6-6.6-0.6-12.5v-5.9
		c0-5.9,0.5-11.9,0.6-12.5c0.2-1.8,1.1-5.1,2.3-6.5c2-2.2,4.2-2.5,5.6-2.7c0.1,0,0.3,0,0.4,0c10.3-0.7,25.7-0.8,26.2-0.9
		c0.6,0,15.9,0.1,26.1,0.9c0.1,0,0.3,0,0.4,0c1.5,0.2,3.7,0.4,5.7,2.6l0,0c1.3,1.3,2,4.7,2.2,6.5c0,0.4,0.6,6.5,0.6,12.5V67z"/>
</g>
</svg>
